<svg width="32" height="32" viewBox="0 0 32 32" fill="none" xmlns="http://www.w3.org/2000/svg">
  <!-- Background circle -->
  <circle cx="16" cy="16" r="16" fill="#6366f1"/>
  
  <!-- Mail icon -->
  <path d="M8 12L16 18L24 12M8 12V20C8 20.5304 8.21071 21.0391 8.58579 21.4142C8.96086 21.7893 9.46957 22 10 22H22C22.5304 22 23.0391 21.7893 23.4142 21.4142C23.7893 21.0391 24 20.5304 24 20V12M8 12C8 11.4696 8.21071 10.9609 8.58579 10.5858C8.96086 10.2107 9.46957 10 10 10H22C22.5304 10 23.0391 10.2107 23.4142 10.5858C23.7893 10.9609 24 11.4696 24 12" stroke="white" stroke-width="2" stroke-linecap="round" stroke-linejoin="round"/>
</svg>
